<svg xmlns="http://www.w3.org/2000/svg" xmlns:xlink="http://www.w3.org/1999/xlink" viewBox="0,0,256,256" width="50px" height="50px" fill-rule="nonzero"><g fill="#ffffff" fill-rule="nonzero" stroke="none" stroke-width="1" stroke-linecap="butt" stroke-linejoin="miter" stroke-miterlimit="10" stroke-dasharray="" stroke-dashoffset="0" font-family="none" font-weight="none" font-size="none" text-anchor="none" style="mix-blend-mode: normal"><g transform="scale(5.12,5.12)"><path d="M25,1c-1.25,0 -2.31477,0.50476 -2.99805,1.27344c-0.68327,0.76868 -1.00195,1.75434 -1.00195,2.72656c0,0.49669 0.08534,0.99577 0.25781,1.46875c-5.55519,1.44646 -9.25781,6.0852 -9.25781,12.53125c0,7.41755 -1.45216,10.80873 -2.80859,12.67383c-0.67822,0.93255 -1.34378,1.49499 -1.9375,2.05078c-0.29686,0.2779 -0.58433,0.5551 -0.82812,0.91992c-0.2438,0.36482 -0.42578,0.84714 -0.42578,1.35547c0,1.375 0.83714,2.53075 1.99219,3.30078c1.15505,0.77004 2.65961,1.28547 4.41602,1.67578c1.97309,0.43847 4.2854,0.69431 6.72461,0.8457c-0.07988,0.37254 -0.13281,0.76355 -0.13281,1.17773c0,3.32381 2.67619,6 6,6c3.32381,0 6,-2.67619 6,-6c0,-0.41419 -0.05293,-0.80519 -0.13281,-1.17773c2.43921,-0.15139 4.75152,-0.40724 6.72461,-0.8457c1.75641,-0.39031 3.26096,-0.90575 4.41602,-1.67578c1.15505,-0.77003 1.99219,-1.92578 1.99219,-3.30078c0,-0.50833 -0.18199,-0.99065 -0.42578,-1.35547c-0.2438,-0.36482 -0.53126,-0.64203 -0.82812,-0.91992c-0.59372,-0.55579 -1.25928,-1.11823 -1.9375,-2.05078c-1.35644,-1.8651 -2.80859,-5.25628 -2.80859,-12.67383c0,-6.40898 -3.66396,-11.1225 -9.25977,-12.52539c0.1739,-0.47467 0.25977,-0.97591 0.25977,-1.47461c0,-0.97222 -0.31868,-1.95788 -1.00195,-2.72656c-0.68327,-0.76868 -1.74805,-1.27344 -2.99805,-1.27344zM25,3c0.75,0 1.18523,0.24524 1.50195,0.60156c0.31673,0.35632 0.49805,0.87066 0.49805,1.39844c0,0.52778 -0.18132,1.04212 -0.49805,1.39844c-0.31673,0.35632 -0.75195,0.60156 -1.50195,0.60156c-0.75,0 -1.18523,-0.24524 -1.50195,-0.60156c-0.31673,-0.35632 -0.49805,-0.87066 -0.49805,-1.39844c0,-0.52778 0.18132,-1.04212 0.49805,-1.39844c0.31673,-0.35632 0.75195,-0.60156 1.50195,-0.60156zM22.55859,8.23047c0.64978,0.4771 1.49171,0.76953 2.44141,0.76953c0.94191,0 1.77819,-0.28765 2.42578,-0.75781c5.31618,0.92445 8.57422,4.75305 8.57422,10.75781c0,7.68245 1.54784,11.59166 3.19141,13.85156c0.82178,1.12995 1.65622,1.83665 2.1875,2.33398c0.26564,0.24867 0.44692,0.44412 0.53125,0.57031c0.08433,0.12619 0.08984,0.15247 0.08984,0.24414c0,0.625 -0.28786,1.09425 -1.10156,1.63672c-0.8137,0.54247 -2.12164,1.02703 -3.74023,1.38672c-3.23719,0.71937 -7.69524,0.97656 -12.1582,0.97656c-4.46296,0 -8.92102,-0.25719 -12.1582,-0.97656c-1.61859,-0.35969 -2.92654,-0.84425 -3.74023,-1.38672c-0.8137,-0.54247 -1.10156,-1.01172 -1.10156,-1.63672c0,-0.09167 0.00551,-0.11795 0.08984,-0.24414c0.08433,-0.12619 0.26561,-0.32165 0.53125,-0.57031c0.53128,-0.49733 1.36572,-1.20403 2.1875,-2.33398c1.64356,-2.2599 3.19141,-6.16911 3.19141,-13.85156c0,-6.02869 3.28528,-9.7763 8.55859,-10.76953zM21.17773,41.92773c1.2616,0.0456 2.538,0.07227 3.82227,0.07227c1.28427,0 2.56066,-0.02666 3.82227,-0.07227c0.10324,0.32986 0.17773,0.67769 0.17773,1.07227c0,2.27619 -1.72381,4 -4,4c-2.27619,0 -4,-1.72381 -4,-4c0,-0.39458 0.07449,-0.74241 0.17773,-1.07227z"></path></g></g></svg>